<?xml version="1.0" encoding="UTF-8" standalone="no"?>
<!DOCTYPE svg PUBLIC "-//W3C//DTD SVG 1.1//EN"
 "http://www.w3.org/Graphics/SVG/1.1/DTD/svg11.dtd">
<!-- Generated by graphviz version 2.26.3 (20100126.1600)
 -->
<!-- Title: G Pages: 1 -->
<svg width="942pt" height="566pt"
 viewBox="0.00 0.00 942.00 566.00" xmlns="http://www.w3.org/2000/svg" xmlns:xlink="http://www.w3.org/1999/xlink">
<g id="graph1" class="graph" transform="scale(1 1) rotate(0) translate(4 562)">
<title>G</title>
<polygon fill="white" stroke="white" points="-4,5 -4,-562 939,-562 939,5 -4,5"/>
<g id="graph2" class="cluster"><title>cluster_Global</title>
<polyline fill="none" stroke="gray" points="154,-152 914,-152 "/>
<path fill="none" stroke="gray" d="M914,-152C920,-152 926,-158 926,-164"/>
<polyline fill="none" stroke="gray" points="926,-164 926,-538 "/>
<path fill="none" stroke="gray" d="M926,-538C926,-544 920,-550 914,-550"/>
<polyline fill="none" stroke="gray" points="914,-550 154,-550 "/>
<path fill="none" stroke="gray" d="M154,-550C148,-550 142,-544 142,-538"/>
<polyline fill="none" stroke="gray" points="142,-538 142,-164 "/>
<path fill="none" stroke="gray" d="M142,-164C142,-158 148,-152 154,-152"/>
<text text-anchor="middle" x="534" y="-536.1" font-family="Times Roman,serif" font-size="11.00" fill="gray">Global</text>
</g>
<!-- \\CacheShell -->
<g id="node2" class="node"><title>\\CacheShell</title>
<polygon fill="none" stroke="black" points="535,-520 451,-520 451,-484 535,-484 535,-520"/>
<text text-anchor="middle" x="493" y="-499.1" font-family="Courier,monospace" font-size="11.00">CacheShell</text>
</g>
<!-- \\AdvancedShell -->
<g id="node3" class="node"><title>\\AdvancedShell</title>
<polygon fill="none" stroke="black" points="254,-466 150,-466 150,-430 254,-430 254,-466"/>
<text text-anchor="middle" x="202" y="-445.1" font-family="Courier,monospace" font-size="11.00">AdvancedShell</text>
</g>
<!-- \\CacheShell&#45;&gt;\\AdvancedShell -->
<g id="edge3" class="edge"><title>\\CacheShell&#45;&gt;\\AdvancedShell</title>
<path fill="none" stroke="black" d="M450.679,-495.805C416.854,-490.698 368.274,-483.014 326,-475 305.723,-471.156 283.682,-466.51 263.884,-462.164"/>
<polygon fill="none" stroke="black" points="264.58,-458.733 254.06,-459.992 263.069,-465.568 264.58,-458.733"/>
</g>
<!-- \\Shell -->
<g id="node16" class="node"><title>\\Shell</title>
<ellipse fill="none" stroke="black" cx="39" cy="-448" rx="38.8909" ry="18.3848"/>
<text text-anchor="middle" x="39" y="-444.4" font-family="Times Roman,serif" font-size="14.00" fill="gray">\Shell</text>
</g>
<!-- \\AdvancedShell&#45;&gt;\\Shell -->
<g id="edge5" class="edge"><title>\\AdvancedShell&#45;&gt;\\Shell</title>
<path fill="none" stroke="black" d="M149.978,-448C130.234,-448 107.822,-448 88.3334,-448"/>
<polygon fill="none" stroke="black" points="88.1414,-444.5 78.1414,-448 88.1413,-451.5 88.1414,-444.5"/>
</g>
<!-- \\CacheClearTask -->
<g id="node4" class="node"><title>\\CacheClearTask</title>
<polygon fill="none" stroke="black" points="880,-520 770,-520 770,-484 880,-484 880,-520"/>
<text text-anchor="middle" x="825" y="-499.1" font-family="Courier,monospace" font-size="11.00">CacheClearTask</text>
</g>
<!-- \\AdvancedTask -->
<g id="node5" class="node"><title>\\AdvancedTask</title>
<polygon fill="none" stroke="black" points="542,-466 444,-466 444,-430 542,-430 542,-466"/>
<text text-anchor="middle" x="493" y="-445.1" font-family="Courier,monospace" font-size="11.00">AdvancedTask</text>
</g>
<!-- \\CacheClearTask&#45;&gt;\\AdvancedTask -->
<g id="edge7" class="edge"><title>\\CacheClearTask&#45;&gt;\\AdvancedTask</title>
<path fill="none" stroke="black" d="M769.251,-492.85C737.278,-487.61 696.386,-480.918 660,-475 624.295,-469.192 584.289,-462.723 552.386,-457.573"/>
<polygon fill="none" stroke="black" points="552.758,-454.088 542.328,-455.95 551.643,-460.999 552.758,-454.088"/>
</g>
<!-- \\AdvancedTask&#45;&gt;\\AdvancedShell -->
<g id="edge9" class="edge"><title>\\AdvancedTask&#45;&gt;\\AdvancedShell</title>
<path fill="none" stroke="black" d="M443.965,-448C394.509,-448 317.992,-448 264.275,-448"/>
<polygon fill="none" stroke="black" points="264.187,-444.5 254.187,-448 264.187,-451.5 264.187,-444.5"/>
</g>
<!-- \\ScheduleSplitByRange -->
<g id="node6" class="node"><title>\\ScheduleSplitByRange</title>
<polygon fill="none" stroke="black" points="901,-466 749,-466 749,-430 901,-430 901,-466"/>
<text text-anchor="middle" x="825" y="-445.1" font-family="Courier,monospace" font-size="11.00">ScheduleSplitByRange</text>
</g>
<!-- \\ScheduleSplitter -->
<g id="node8" class="node"><title>\\ScheduleSplitter</title>
<polygon fill="none" stroke="black" points="556,-412 430,-412 430,-376 556,-376 556,-412"/>
<text text-anchor="start" x="459" y="-399.433" font-family="Courier,monospace" font-size="11.00">«abstract»</text>
<text text-anchor="start" x="438.5" y="-386.233" font-family="Courier,monospace" font-size="11.00">ScheduleSplitter</text>
</g>
<!-- \\ScheduleSplitByRange&#45;&gt;\\ScheduleSplitter -->
<g id="edge11" class="edge"><title>\\ScheduleSplitByRange&#45;&gt;\\ScheduleSplitter</title>
<path fill="none" stroke="black" d="M748.608,-435.468C720.724,-430.902 688.937,-425.707 660,-421 629.272,-416.002 595.358,-410.514 566.165,-405.798"/>
<polygon fill="none" stroke="black" points="566.479,-402.304 556.049,-404.164 565.363,-409.214 566.479,-402.304"/>
</g>
<!-- \\ScheduleNoSplit -->
<g id="node7" class="node"><title>\\ScheduleNoSplit</title>
<polygon fill="none" stroke="black" points="884,-412 766,-412 766,-376 884,-376 884,-412"/>
<text text-anchor="middle" x="825" y="-391.1" font-family="Courier,monospace" font-size="11.00">ScheduleNoSplit</text>
</g>
<!-- \\ScheduleNoSplit&#45;&gt;\\ScheduleSplitter -->
<g id="edge13" class="edge"><title>\\ScheduleNoSplit&#45;&gt;\\ScheduleSplitter</title>
<path fill="none" stroke="black" d="M765.645,-394C709.842,-394 626.155,-394 566.229,-394"/>
<polygon fill="none" stroke="black" points="566.077,-390.5 556.077,-394 566.077,-397.5 566.077,-390.5"/>
</g>
<!-- \\AdvancedShellModelFixture -->
<g id="node9" class="node"><title>\\AdvancedShellModelFixture</title>
<polygon fill="none" stroke="black" points="917,-358 733,-358 733,-322 917,-322 917,-358"/>
<text text-anchor="middle" x="825" y="-337.1" font-family="Courier,monospace" font-size="11.00">AdvancedShellModelFixture</text>
</g>
<!-- \\CakeTestFixture -->
<g id="node22" class="node"><title>\\CakeTestFixture</title>
<ellipse fill="none" stroke="black" cx="493" cy="-126" rx="92.1303" ry="18.3848"/>
<text text-anchor="middle" x="493" y="-122.4" font-family="Times Roman,serif" font-size="14.00" fill="gray">\CakeTestFixture</text>
</g>
<!-- \\AdvancedShellModelFixture&#45;&gt;\\CakeTestFixture -->
<g id="edge15" class="edge"><title>\\AdvancedShellModelFixture&#45;&gt;\\CakeTestFixture</title>
<path fill="none" stroke="black" d="M744.391,-321.81C739.967,-319.249 735.789,-316.329 732,-313 671.897,-260.185 723.929,-196.113 660,-148 640.782,-133.536 616.674,-126.096 592.802,-122.658"/>
<polygon fill="none" stroke="black" points="592.949,-119.151 582.601,-121.422 592.107,-126.1 592.949,-119.151"/>
</g>
<!-- \\CacheShellTest -->
<g id="node10" class="node"><title>\\CacheShellTest</title>
<polygon fill="none" stroke="black" points="880,-304 770,-304 770,-268 880,-268 880,-304"/>
<text text-anchor="middle" x="825" y="-283.1" font-family="Courier,monospace" font-size="11.00">CacheShellTest</text>
</g>
<!-- \\CakeTestCase -->
<g id="node24" class="node"><title>\\CakeTestCase</title>
<ellipse fill="none" stroke="black" cx="493" cy="-72" rx="82.0244" ry="18.3848"/>
<text text-anchor="middle" x="493" y="-68.4" font-family="Times Roman,serif" font-size="14.00" fill="gray">\CakeTestCase</text>
</g>
<!-- \\CacheShellTest&#45;&gt;\\CakeTestCase -->
<g id="edge17" class="edge"><title>\\CacheShellTest&#45;&gt;\\CakeTestCase</title>
<path fill="none" stroke="black" d="M769.422,-278.212C756.014,-274.207 742.535,-268.151 732,-259 673.131,-207.861 721.883,-146.447 660,-99 638.61,-82.5996 611.093,-74.4882 584.592,-70.8303"/>
<polygon fill="none" stroke="black" points="584.841,-67.3355 574.5,-69.6385 584.02,-74.2872 584.841,-67.3355"/>
</g>
<!-- \\AdvancedShellTest -->
<g id="node11" class="node"><title>\\AdvancedShellTest</title>
<polygon fill="none" stroke="black" points="890,-250 760,-250 760,-214 890,-214 890,-250"/>
<text text-anchor="middle" x="825" y="-229.1" font-family="Courier,monospace" font-size="11.00">AdvancedShellTest</text>
</g>
<!-- \\AdvancedShellTest&#45;&gt;\\CakeTestCase -->
<g id="edge19" class="edge"><title>\\AdvancedShellTest&#45;&gt;\\CakeTestCase</title>
<path fill="none" stroke="black" d="M759.282,-219.182C749.605,-215.563 740.161,-210.93 732,-205 685.926,-171.524 708.033,-129.599 660,-99 637.914,-84.9301 610.954,-77.3858 585.194,-73.5283"/>
<polygon fill="none" stroke="black" points="585.387,-70.0233 575.014,-72.1804 584.468,-76.9627 585.387,-70.0233"/>
</g>
<!-- \\TestAdvancedShellTask -->
<g id="node12" class="node"><title>\\TestAdvancedShellTask</title>
<polygon fill="none" stroke="black" points="572,-358 414,-358 414,-322 572,-322 572,-358"/>
<text text-anchor="middle" x="493" y="-337.1" font-family="Courier,monospace" font-size="11.00">TestAdvancedShellTask</text>
</g>
<!-- \\TestAdvancedShellTask&#45;&gt;\\AdvancedShell -->
<g id="edge21" class="edge"><title>\\TestAdvancedShellTask&#45;&gt;\\AdvancedShell</title>
<path fill="none" stroke="black" d="M413.894,-345.927C385.491,-349.826 353.662,-356.288 326,-367 291.037,-380.539 255.675,-404.932 231.711,-423.423"/>
<polygon fill="none" stroke="black" points="229.433,-420.761 223.729,-429.69 233.756,-426.267 229.433,-420.761"/>
</g>
<!-- \\AllAdvancedShellTest -->
<g id="node13" class="node"><title>\\AllAdvancedShellTest</title>
<polygon fill="none" stroke="black" points="901,-196 749,-196 749,-160 901,-160 901,-196"/>
<text text-anchor="middle" x="825" y="-175.1" font-family="Courier,monospace" font-size="11.00">AllAdvancedShellTest</text>
</g>
<!-- \\PHPUnit_Framework_TestSuite -->
<g id="node28" class="node"><title>\\PHPUnit_Framework_TestSuite</title>
<ellipse fill="none" stroke="black" cx="493" cy="-18" rx="166.877" ry="18.3848"/>
<text text-anchor="middle" x="493" y="-14.4" font-family="Times Roman,serif" font-size="14.00" fill="gray">\PHPUnit_Framework_TestSuite</text>
</g>
<!-- \\AllAdvancedShellTest&#45;&gt;\\PHPUnit_Framework_TestSuite -->
<g id="edge23" class="edge"><title>\\AllAdvancedShellTest&#45;&gt;\\PHPUnit_Framework_TestSuite</title>
<path fill="none" stroke="black" d="M808.757,-159.856C781.285,-130.449 722.506,-72.8651 660,-45 649.102,-40.1419 637.458,-36.1457 625.578,-32.8602"/>
<polygon fill="none" stroke="black" points="626.113,-29.3833 615.555,-30.2642 624.358,-36.1598 626.113,-29.3833"/>
</g>
</g>
</svg>
