<?xml version="1.0" encoding="UTF-8" standalone="no"?>
<!DOCTYPE svg PUBLIC "-//W3C//DTD SVG 1.1//EN"
 "http://www.w3.org/Graphics/SVG/1.1/DTD/svg11.dtd">
<!-- Generated by graphviz version 2.26.3 (20100126.1600)
 -->
<!-- Title: G Pages: 1 -->
<svg width="942pt" height="566pt"
 viewBox="0.00 0.00 942.00 566.00" xmlns="http://www.w3.org/2000/svg" xmlns:xlink="http://www.w3.org/1999/xlink">
<g id="graph1" class="graph" transform="scale(1 1) rotate(0) translate(4 562)">
<title>G</title>
<polygon fill="white" stroke="white" points="-4,5 -4,-562 939,-562 939,5 -4,5"/>
<g id="graph2" class="cluster"><title>cluster_Global</title>
<polyline fill="none" stroke="gray" points="154,-152 914,-152 "/>
<path fill="none" stroke="gray" d="M914,-152C920,-152 926,-158 926,-164"/>
<polyline fill="none" stroke="gray" points="926,-164 926,-538 "/>
<path fill="none" stroke="gray" d="M926,-538C926,-544 920,-550 914,-550"/>
<polyline fill="none" stroke="gray" points="914,-550 154,-550 "/>
<path fill="none" stroke="gray" d="M154,-550C148,-550 142,-544 142,-538"/>
<polyline fill="none" stroke="gray" points="142,-538 142,-164 "/>
<path fill="none" stroke="gray" d="M142,-164C142,-158 148,-152 154,-152"/>
<text text-anchor="middle" x="534" y="-536.1" font-family="Times Roman,serif" font-size="11.00" fill="gray">Global</text>
</g>
<!-- \\CacheShellTest -->
<g id="node2" class="node"><title>\\CacheShellTest</title>
<polygon fill="none" stroke="black" points="880,-358 770,-358 770,-322 880,-322 880,-358"/>
<text text-anchor="middle" x="825" y="-337.1" font-family="Courier,monospace" font-size="11.00">CacheShellTest</text>
</g>
<!-- \\CakeTestCase -->
<g id="node15" class="node"><title>\\CakeTestCase</title>
<ellipse fill="none" stroke="black" cx="493" cy="-126" rx="82.0244" ry="18.3848"/>
<text text-anchor="middle" x="493" y="-122.4" font-family="Times Roman,serif" font-size="14.00" fill="gray">\CakeTestCase</text>
</g>
<!-- \\CacheShellTest&#45;&gt;\\CakeTestCase -->
<g id="edge3" class="edge"><title>\\CacheShellTest&#45;&gt;\\CakeTestCase</title>
<path fill="none" stroke="black" d="M769.35,-332.294C755.943,-328.288 742.482,-322.211 732,-313 671.897,-260.185 723.929,-196.113 660,-148 637.733,-131.242 608.903,-123.912 581.481,-121.313"/>
<polygon fill="none" stroke="black" points="581.69,-117.819 571.456,-120.561 581.166,-124.799 581.69,-117.819"/>
</g>
<!-- \\TestAdvancedShellTask -->
<g id="node3" class="node"><title>\\TestAdvancedShellTask</title>
<polygon fill="none" stroke="black" points="572,-520 414,-520 414,-484 572,-484 572,-520"/>
<text text-anchor="middle" x="493" y="-499.1" font-family="Courier,monospace" font-size="11.00">TestAdvancedShellTask</text>
</g>
<!-- \\AdvancedShell -->
<g id="node13" class="node"><title>\\AdvancedShell</title>
<polygon fill="none" stroke="black" points="254,-466 150,-466 150,-430 254,-430 254,-466"/>
<text text-anchor="middle" x="202" y="-445.1" font-family="Courier,monospace" font-size="11.00">AdvancedShell</text>
</g>
<!-- \\TestAdvancedShellTask&#45;&gt;\\AdvancedShell -->
<g id="edge5" class="edge"><title>\\TestAdvancedShellTask&#45;&gt;\\AdvancedShell</title>
<path fill="none" stroke="black" d="M413.842,-490.101C386.014,-485.68 354.567,-480.415 326,-475 305.723,-471.156 283.682,-466.51 263.884,-462.164"/>
<polygon fill="none" stroke="black" points="264.58,-458.733 254.06,-459.992 263.069,-465.568 264.58,-458.733"/>
</g>
<!-- \\AdvancedShellTest -->
<g id="node4" class="node"><title>\\AdvancedShellTest</title>
<polygon fill="none" stroke="black" points="890,-304 760,-304 760,-268 890,-268 890,-304"/>
<text text-anchor="middle" x="825" y="-283.1" font-family="Courier,monospace" font-size="11.00">AdvancedShellTest</text>
</g>
<!-- \\AdvancedShellTest&#45;&gt;\\CakeTestCase -->
<g id="edge7" class="edge"><title>\\AdvancedShellTest&#45;&gt;\\CakeTestCase</title>
<path fill="none" stroke="black" d="M759.171,-273.333C749.508,-269.695 740.097,-265.016 732,-259 684.798,-223.932 709.722,-179.393 660,-148 637.734,-133.942 610.47,-127.051 584.478,-124.025"/>
<polygon fill="none" stroke="black" points="584.504,-120.511 574.21,-123.017 583.82,-127.478 584.504,-120.511"/>
</g>
<!-- \\AllAdvancedShellTest -->
<g id="node5" class="node"><title>\\AllAdvancedShellTest</title>
<polygon fill="none" stroke="black" points="901,-250 749,-250 749,-214 901,-214 901,-250"/>
<text text-anchor="middle" x="825" y="-229.1" font-family="Courier,monospace" font-size="11.00">AllAdvancedShellTest</text>
</g>
<!-- \\PHPUnit_Framework_TestSuite -->
<g id="node19" class="node"><title>\\PHPUnit_Framework_TestSuite</title>
<ellipse fill="none" stroke="black" cx="493" cy="-72" rx="166.877" ry="18.3848"/>
<text text-anchor="middle" x="493" y="-68.4" font-family="Times Roman,serif" font-size="14.00" fill="gray">\PHPUnit_Framework_TestSuite</text>
</g>
<!-- \\AllAdvancedShellTest&#45;&gt;\\PHPUnit_Framework_TestSuite -->
<g id="edge9" class="edge"><title>\\AllAdvancedShellTest&#45;&gt;\\PHPUnit_Framework_TestSuite</title>
<path fill="none" stroke="black" d="M748.783,-214.778C742.852,-211.991 737.169,-208.755 732,-205 685.926,-171.524 708.033,-129.599 660,-99 652.269,-94.075 643.941,-89.9495 635.276,-86.5019"/>
<polygon fill="none" stroke="black" points="636.348,-83.1672 625.754,-83.0211 633.944,-89.7417 636.348,-83.1672"/>
</g>
<!-- \\AdvancedShellModelFixture -->
<g id="node6" class="node"><title>\\AdvancedShellModelFixture</title>
<polygon fill="none" stroke="black" points="917,-196 733,-196 733,-160 917,-160 917,-196"/>
<text text-anchor="middle" x="825" y="-175.1" font-family="Courier,monospace" font-size="11.00">AdvancedShellModelFixture</text>
</g>
<!-- \\CakeTestFixture -->
<g id="node21" class="node"><title>\\CakeTestFixture</title>
<ellipse fill="none" stroke="black" cx="493" cy="-18" rx="92.1303" ry="18.3848"/>
<text text-anchor="middle" x="493" y="-14.4" font-family="Times Roman,serif" font-size="14.00" fill="gray">\CakeTestFixture</text>
</g>
<!-- \\AdvancedShellModelFixture&#45;&gt;\\CakeTestFixture -->
<g id="edge11" class="edge"><title>\\AdvancedShellModelFixture&#45;&gt;\\CakeTestFixture</title>
<path fill="none" stroke="black" d="M808.757,-159.856C781.285,-130.449 722.506,-72.8651 660,-45 638.641,-35.478 614.413,-29.2673 591.166,-25.2293"/>
<polygon fill="none" stroke="black" points="591.706,-21.7711 581.275,-23.6284 590.587,-28.6812 591.706,-21.7711"/>
</g>
<!-- \\AdvancedTask -->
<g id="node7" class="node"><title>\\AdvancedTask</title>
<polygon fill="none" stroke="black" points="542,-466 444,-466 444,-430 542,-430 542,-466"/>
<text text-anchor="middle" x="493" y="-445.1" font-family="Courier,monospace" font-size="11.00">AdvancedTask</text>
</g>
<!-- \\AdvancedTask&#45;&gt;\\AdvancedShell -->
<g id="edge13" class="edge"><title>\\AdvancedTask&#45;&gt;\\AdvancedShell</title>
<path fill="none" stroke="black" d="M443.965,-448C394.509,-448 317.992,-448 264.275,-448"/>
<polygon fill="none" stroke="black" points="264.187,-444.5 254.187,-448 264.187,-451.5 264.187,-444.5"/>
</g>
<!-- \\CacheClearTask -->
<g id="node8" class="node"><title>\\CacheClearTask</title>
<polygon fill="none" stroke="black" points="880,-520 770,-520 770,-484 880,-484 880,-520"/>
<text text-anchor="middle" x="825" y="-499.1" font-family="Courier,monospace" font-size="11.00">CacheClearTask</text>
</g>
<!-- \\CacheClearTask&#45;&gt;\\AdvancedTask -->
<g id="edge15" class="edge"><title>\\CacheClearTask&#45;&gt;\\AdvancedTask</title>
<path fill="none" stroke="black" d="M769.251,-492.85C737.278,-487.61 696.386,-480.918 660,-475 624.295,-469.192 584.289,-462.723 552.386,-457.573"/>
<polygon fill="none" stroke="black" points="552.758,-454.088 542.328,-455.95 551.643,-460.999 552.758,-454.088"/>
</g>
<!-- \\ScheduleSplitter -->
<g id="node9" class="node"><title>\\ScheduleSplitter</title>
<polygon fill="none" stroke="black" points="556,-412 430,-412 430,-376 556,-376 556,-412"/>
<text text-anchor="start" x="459" y="-399.433" font-family="Courier,monospace" font-size="11.00">«abstract»</text>
<text text-anchor="start" x="438.5" y="-386.233" font-family="Courier,monospace" font-size="11.00">ScheduleSplitter</text>
</g>
<!-- \\ScheduleNoSplit -->
<g id="node10" class="node"><title>\\ScheduleNoSplit</title>
<polygon fill="none" stroke="black" points="884,-466 766,-466 766,-430 884,-430 884,-466"/>
<text text-anchor="middle" x="825" y="-445.1" font-family="Courier,monospace" font-size="11.00">ScheduleNoSplit</text>
</g>
<!-- \\ScheduleNoSplit&#45;&gt;\\ScheduleSplitter -->
<g id="edge17" class="edge"><title>\\ScheduleNoSplit&#45;&gt;\\ScheduleSplitter</title>
<path fill="none" stroke="black" d="M765.819,-438.288C734.386,-433.136 695.097,-426.709 660,-421 629.272,-416.002 595.358,-410.514 566.165,-405.798"/>
<polygon fill="none" stroke="black" points="566.479,-402.304 556.049,-404.164 565.363,-409.214 566.479,-402.304"/>
</g>
<!-- \\ScheduleSplitByRange -->
<g id="node11" class="node"><title>\\ScheduleSplitByRange</title>
<polygon fill="none" stroke="black" points="901,-412 749,-412 749,-376 901,-376 901,-412"/>
<text text-anchor="middle" x="825" y="-391.1" font-family="Courier,monospace" font-size="11.00">ScheduleSplitByRange</text>
</g>
<!-- \\ScheduleSplitByRange&#45;&gt;\\ScheduleSplitter -->
<g id="edge19" class="edge"><title>\\ScheduleSplitByRange&#45;&gt;\\ScheduleSplitter</title>
<path fill="none" stroke="black" d="M748.832,-394C693.978,-394 620.396,-394 566.228,-394"/>
<polygon fill="none" stroke="black" points="566.007,-390.5 556.006,-394 566.006,-397.5 566.007,-390.5"/>
</g>
<!-- \\CacheShell -->
<g id="node12" class="node"><title>\\CacheShell</title>
<polygon fill="none" stroke="black" points="535,-358 451,-358 451,-322 535,-322 535,-358"/>
<text text-anchor="middle" x="493" y="-337.1" font-family="Courier,monospace" font-size="11.00">CacheShell</text>
</g>
<!-- \\CacheShell&#45;&gt;\\AdvancedShell -->
<g id="edge21" class="edge"><title>\\CacheShell&#45;&gt;\\AdvancedShell</title>
<path fill="none" stroke="black" d="M450.903,-341.953C416.351,-344.688 366.671,-351.25 326,-367 291.037,-380.539 255.675,-404.932 231.711,-423.423"/>
<polygon fill="none" stroke="black" points="229.433,-420.761 223.729,-429.69 233.756,-426.267 229.433,-420.761"/>
</g>
<!-- \\Shell -->
<g id="node28" class="node"><title>\\Shell</title>
<ellipse fill="none" stroke="black" cx="39" cy="-448" rx="38.8909" ry="18.3848"/>
<text text-anchor="middle" x="39" y="-444.4" font-family="Times Roman,serif" font-size="14.00" fill="gray">\Shell</text>
</g>
<!-- \\AdvancedShell&#45;&gt;\\Shell -->
<g id="edge23" class="edge"><title>\\AdvancedShell&#45;&gt;\\Shell</title>
<path fill="none" stroke="black" d="M149.978,-448C130.234,-448 107.822,-448 88.3334,-448"/>
<polygon fill="none" stroke="black" points="88.1414,-444.5 78.1414,-448 88.1413,-451.5 88.1414,-444.5"/>
</g>
</g>
</svg>
